<?xml version="1.0" encoding="utf-8"?>
<!-- Generator: Adobe Illustrator 27.0.0, SVG Export Plug-In . SVG Version: 6.00 Build 0)  -->
<svg version="1.1" id="Layer_1" xmlns="http://www.w3.org/2000/svg" xmlns:xlink="http://www.w3.org/1999/xlink" x="0px" y="0px"
	 viewBox="0 0 60 60" style="enable-background:new 0 0 60 60;" xml:space="preserve">
<image style="overflow:visible;enable-background:new    ;" width="4096" height="4096" id="Design_app_00000140729836946744320350000016294149809672861073_" xlink:href="C:\Users\P B Webvision\AppData\Roaming\com.iconscout.icondrop.adobe\Design app.png"  transform="matrix(1.546917e-02 0 0 1.546917e-02 -161.6809 -161.6808)">
</image>
<image style="overflow:visible;enable-background:new    ;" width="4096" height="4096" id="Content_Planner" xlink:href="C:\Users\P B Webvision\AppData\Roaming\com.iconscout.icondrop.adobe\Content Planner.png"  transform="matrix(1.483414e-02 0 0 1.483414e-02 -11.3803 90.4282)">
</image>
<image style="overflow:visible;enable-background:new    ;" width="4096" height="4096" id="Online_Marketing" xlink:href="C:\Users\P B Webvision\AppData\Roaming\com.iconscout.icondrop.adobe\Online Marketing.png"  transform="matrix(1.517827e-02 0 0 1.517827e-02 -1.0851 -161.0851)">
</image>
<image style="overflow:visible;enable-background:new    ;" width="4096" height="3888" id="robot" xlink:href="C:\Users\P B Webvision\AppData\Roaming\com.iconscout.icondrop.adobe\robot.png"  transform="matrix(1.443613e-02 0 0 1.443613e-02 -159.5652 -78.0638)">
</image>
<image style="overflow:visible;enable-background:new    ;" width="4096" height="4096" id="Web_Development_00000062894698750777645230000001124157891680824756_" xlink:href="C:\Users\P B Webvision\AppData\Roaming\com.iconscout.icondrop.adobe\Web Development.png"  transform="matrix(1.546917e-02 0 0 1.546917e-02 -81.6809 -161.6808)">
</image>
<image style="overflow:visible;enable-background:new    ;" width="4096" height="4096" id="Media_player" xlink:href="C:\Users\P B Webvision\AppData\Roaming\com.iconscout.icondrop.adobe\Media player.png"  transform="matrix(1.464844e-02 0 0 1.464844e-02 -80 -80)">
</image>
<image style="overflow:visible;enable-background:new    ;" width="4096" height="4096" id="Implant_00000133527835962297029230000012467545023521605808_" xlink:href="C:\Users\P B Webvision\AppData\Roaming\com.iconscout.icondrop.adobe\Implant.png"  transform="matrix(1.546917e-02 0 0 1.546917e-02 -161.6809 -1.6809)">
</image>
<image style="overflow:visible;enable-background:new    ;" width="4096" height="4096" id="Design_Setting" xlink:href="C:\Users\P B Webvision\AppData\Roaming\com.iconscout.icondrop.adobe\Design Setting.png"  transform="matrix(1.588472e-02 0 0 1.588472e-02 -82.5319 -2.5319)">
</image>
<image style="overflow:visible;" width="4096" height="4096" id="Big_Data_00000112619988292022623500000012845284862659560884_" xlink:href="C:\Users\P B Webvision\AppData\Roaming\com.iconscout.icondrop.adobe\Big Data.png"  transform="matrix(1.536528e-02 0 0 1.536528e-02 -1.4681 -1.4681)">
</image>
<image style="overflow:visible;" width="4096" height="4096" id="Metaverse_Technology" xlink:href="C:\Users\P B Webvision\AppData\Roaming\com.iconscout.icondrop.adobe\Metaverse Technology.png"  transform="matrix(1.708984e-02 0 0 1.708984e-02 86.0426 -6)">
</image>
<image style="overflow:visible;" width="4096" height="4096" id="Web_Service" xlink:href="C:\Users\P B Webvision\AppData\Roaming\com.iconscout.icondrop.adobe\Web Service.png"  transform="matrix(1.131358e-02 0 0 1.131358e-02 -80 94.1064)">
</image>
<image style="overflow:visible;" width="4096" height="4096" id="Cloud_Security" xlink:href="C:\Users\P B Webvision\AppData\Roaming\com.iconscout.icondrop.adobe\Cloud Security.png"  transform="matrix(9.994182e-03 0 0 9.994182e-03 -1.4681 -42.4681)">
</image>
<image style="overflow:visible;" width="4096" height="2731" id="Man_doing_Online_cloud_library_backup_00000025442886445072664860000000000110768253866129_" xlink:href="C:\Users\P B Webvision\AppData\Roaming\com.iconscout.icondrop.adobe\Man doing Online cloud library backup.png"  transform="matrix(2.202460e-02 0 0 2.202460e-02 58.3191 94.1064)">
</image>
<image style="overflow:visible;" width="4096" height="4096" id="Code_Management" xlink:href="C:\Users\P B Webvision\AppData\Roaming\com.iconscout.icondrop.adobe\Code Management.png"  transform="matrix(1.758976e-02 0 0 1.758976e-02 85.0187 -108.154)">
</image>
<image style="overflow:visible;" width="4096" height="4096" id="Cloud_Server_00000080885194847459505540000004257281461776179340_" xlink:href="C:\Users\P B Webvision\AppData\Roaming\com.iconscout.icondrop.adobe\Cloud Server.png"  transform="matrix(1.559965e-02 0 0 1.559965e-02 -242.9813 113.3166)">
</image>
</svg>
