<?xml version="1.0" encoding="utf-8"?>
<!-- Generator: Adobe Illustrator 27.0.0, SVG Export Plug-In . SVG Version: 6.00 Build 0)  -->
<svg version="1.1" id="Layer_1" xmlns="http://www.w3.org/2000/svg" xmlns:xlink="http://www.w3.org/1999/xlink" x="0px" y="0px"
	 viewBox="0 0 60 60" style="enable-background:new 0 0 60 60;" xml:space="preserve">
<image style="overflow:visible;" width="4096" height="4096" id="Design_app_00000140729836946744320350000016294149809672861073_" xlink:href="C:\Users\P B Webvision\AppData\Roaming\com.iconscout.icondrop.adobe\Design app.png"  transform="matrix(1.546917e-02 0 0 1.546917e-02 -81.6809 -161.6808)">
</image>
<g>
</g>
<image style="overflow:visible;" width="4096" height="4096" id="Content_Planner" xlink:href="C:\Users\P B Webvision\AppData\Roaming\com.iconscout.icondrop.adobe\Content Planner.png"  transform="matrix(1.483414e-02 0 0 1.483414e-02 79.6197 -80.3803)">
</image>
<image style="overflow:visible;" width="4096" height="4096" id="Online_Marketing" xlink:href="C:\Users\P B Webvision\AppData\Roaming\com.iconscout.icondrop.adobe\Online Marketing.png"  transform="matrix(1.517827e-02 0 0 1.517827e-02 78.9149 -161.0851)">
</image>
<image style="overflow:visible;" width="4096" height="3888" id="robot" xlink:href="C:\Users\P B Webvision\AppData\Roaming\com.iconscout.icondrop.adobe\robot.png"  transform="matrix(1.443613e-02 0 0 1.443613e-02 -79.5652 -78.0638)">
</image>
<image style="overflow:visible;" width="4096" height="4096" id="Web_Development_00000062894698750777645230000001124157891680824756_" xlink:href="C:\Users\P B Webvision\AppData\Roaming\com.iconscout.icondrop.adobe\Web Development.png"  transform="matrix(1.546917e-02 0 0 1.546917e-02 -1.6809 -161.6808)">
</image>
<image style="overflow:visible;" width="4096" height="4096" id="Media_player" xlink:href="C:\Users\P B Webvision\AppData\Roaming\com.iconscout.icondrop.adobe\Media player.png"  transform="matrix(1.464844e-02 0 0 1.464844e-02 0 -80)">
</image>
<image style="overflow:visible;" width="4096" height="4096" id="Implant_00000133527835962297029230000012467545023521605808_" xlink:href="C:\Users\P B Webvision\AppData\Roaming\com.iconscout.icondrop.adobe\Implant.png"  transform="matrix(1.546917e-02 0 0 1.546917e-02 -81.6809 -1.6809)">
</image>
<image style="overflow:visible;" width="4096" height="4096" id="Design_Setting" xlink:href="C:\Users\P B Webvision\AppData\Roaming\com.iconscout.icondrop.adobe\Design Setting.png"  transform="matrix(1.588472e-02 0 0 1.588472e-02 -2.5319 -2.5319)">
</image>
</svg>
